<?xml version="1.0" encoding="UTF-8"?>
<svg id="Capa_2" data-name="Capa 2" xmlns="http://www.w3.org/2000/svg" viewBox="0 0 3052 1295.4">
  <defs>
    <style>
      .cls-1 {
        fill: #010101;
      }

      .cls-2 {
        fill: #0f0e0e;
      }

      .cls-3 {
        fill: #33a7de;
      }
    </style>
  </defs>
  <path class="cls-2" d="M1559.04,1000.85c31.85-4.68,25.82-30.29,36.71-29.5,8.7.63,17.95-1.31,26.51.84,3.95,2.55,1.24,10.94-.06,15.02-10.64,33.39-43.19,47.74-76.48,45.61-25.79-1.65-48.39-14.7-60.17-38.73-20.98-42.79-13.11-110.13,36.47-129.3,29.88-11.55,63.93-5.97,86.05,17.04,10.87,11.31,20.69,37.87,14.19,38.96-8.38,1.41-16.63.14-25.07.67-5.14.32-7.64-2.66-9.16-7.07-5.19-15.07-19.69-23.89-35.02-24-15.46-.11-29.22,8.56-35.49,23.86-8.14,19.87-7.91,42.59-.02,62.63,6.79,17.25,23.93,26.56,41.56,23.97Z"/>
  <path class="cls-2" d="M1764.39,1029.02l-23.29.1c-3.28.01-5.62-2.43-5.64-5.72l-.62-73.92c-.11-12.7-9.27-19.28-20.62-19.7-14.82-.55-26.59,8.58-26.78,24.21l-.88,73.92c-4.79,1.62-33.18,2.87-33.39-2.05l-.17-170.92c11-.91,20.6-.68,30.96-.31,2.1.08,2.74,3.87,2.76,5.53l.87,59.56c10.69-14.58,23.73-20.86,40.05-20.65,18.05.24,34.32,9.77,39.3,27.9,1.57,5.72,3.47,12.43,3.48,18.74l.18,75.93c0,3.48-2.29,7.36-6.22,7.38Z"/>
  <path class="cls-2" d="M388.27,1028.94c-5.1-.07-6.7-2.98-6.73-6.93l-.56-72.5c-.1-13.35-10.06-19.68-22.34-19.76-11.44-.07-24.53,6.27-24.72,19.88l-1.08,77.75c-1.38,2.47-31.82,2.93-33.66-.78v-171.67c11.65-.94,22.17-.91,33.44-.11l.97,64.88c9.19-14.27,22.87-20.42,38.63-20.61,22.85-.27,40.99,14.66,42.99,38.02l.39,86.29c.02,4.04-3.68,5.82-7.21,5.78l-20.14-.26Z"/>
  <path class="cls-2" d="M222.27,1027.04c-1.76,3.35-34.59,3-35.44-.91l-.16-131.61-42.28-.23c-2.09-.01-5.93-1.19-6.29-3.67-1.31-8.92-1.66-18.03.62-27.16l132.32.12c1.38,9.4.63,17.67.68,26.7.05,8.19-39.77,1.8-49.28,4.52l-.17,132.24Z"/>
  <path class="cls-2" d="M2533.48,949.92c-3.44,19.14-2.63,50.12,22.66,52.77,12.54,1.32,23.25-5.29,27.79-18.46,10.06-1.3,20.56-1.9,31.13.56-.5,17.15-10.25,32.4-25.3,40.03-22.56,11.44-57.08,9.31-75.09-8.74-23.74-23.79-24-74.88-2.94-99.15,20.85-24.04,70.02-23.08,89.06-3.65,8.77,8.95,14.26,20.9,14.15,33.13-6.83,3.32-13.75,1.17-20.73,1.88-19.75,2.01-6.22-17.98-32.94-19.88-14.16-1.01-25.21,7.16-27.78,21.51Z"/>
  <path class="cls-2" d="M2832.94,950.29c-2.44,17.43-2.79,43.26,16.09,50.66,9.89,3.87,21.71,1.89,28.67-5.63,3.38-3.64,3.91-8.61,7.69-11.71,9.74-.4,18.96-.59,29.38.16-.07,21.97-14.69,39.75-35.89,45.3-20.83,5.45-44.17,3.7-61.19-10.28-27.32-22.43-26.83-75.74-7.54-100.16,12.56-15.9,31.55-19.48,50.8-19.78,28.6-.45,52.98,18.27,53.99,48.04-10.32,2.01-20.48,1.86-30.29.55-3.47-3.77-3.6-8.74-7.35-12.38-9.72-9.43-27.27-9.86-36.91.26-3.56,3.74-6.77,10.05-7.46,14.97Z"/>
  <path class="cls-2" d="M2709.17,1001.4c2.81,8.47,2.04,17.27-.42,26.17-11.41,2.79-23.45,2.18-35.12.18-14.94-2.55-24.33-13.71-24.56-29.16l-1.01-67.49c-5.63-2.14-12.61,1.18-16.92-1.65-2.5-.1-4.55-24.4,1.14-26.39,5.01-1.75,10.53.31,15.86-1.04l.91-26.45c.29-8.61,18.28-1.41,27.97-4.29,11.74-3.5,4.67,23.23,7.49,30.51l23.51.81c3.77,8.65,2.79,18.02.71,27.55l-24.57.86-.15,57.93c-.03,11.6,14.23,13.24,25.15,12.47Z"/>
  <path class="cls-2" d="M2298.27,1028.12c-10.48.23-34.87,5.53-34.88-5.09l-.15-114.81c0-4.22,2.99-7.32,7.12-7.18,7.93.27,15.73-.78,23.5.49,7.24,1.19,3.05,13.74,5.64,13.84,2.95.11,16.17-24.34,45.37-13.48l-.07,28.54c-11,4.62-24.47-3.98-37.23,7.85-5.92,5.49-9.02,12.91-9.06,22.31l-.24,67.52Z"/>
  <path class="cls-2" d="M1901.11,1028.05c-9.51,2.12-17.9.61-26.63,1.14-4.74.29-7.21-2.6-7.19-7.25l.29-119.06c11.08-1.16,21.5-.67,32.4-.4,2.76,5.47-.17,10.54,2.12,16.6,8.17-16.46,27.7-23.64,45.09-17.66,1.31,10.47.52,19.92.46,30.24-6.67.4-12.54.1-19.23,0-14.49-.23-26.43,10.3-26.58,25.15l-.72,71.24Z"/>
  <path class="cls-2" d="M842.8,1022.7c.01,3.98-2.47,6.45-5.69,6.4-9.33-.17-17.9.81-28.16-.9l-.21-125.56,17.83-1.52c4.19-.36,13.14-1.71,13.83,2l2.86,15.41c10-21.14,45.22-24.46,45.75-13.15.4,8.5.64,17.16-.33,25.83-7.37,1.57-14.33-.01-21.62.56-14.58,1.15-24.48,12.77-24.44,27.24l.18,63.7Z"/>
  <path class="cls-2" d="M939.72,1028.94l-23.18.14c-4.2.03-7.15-2.88-7.14-7.26l.13-119.04,34.81-.34.4,120.92c0,2.57-2.06,5.56-5.02,5.58Z"/>
  <path class="cls-2" d="M1830.26,1028.98l-23.17.14c-2.38.01-4.63-.98-5.52-2.35-1.03-1.58-1.2-3.8-1.19-6.34l.39-117.88c12.14-.34,22.63-.74,34.36.23l.24,120.6c0,2.69-1.97,5.59-5.11,5.61Z"/>
  <path class="cls-2" d="M2770.86,1023.4c.02,4.92-4.6,6.09-8.61,5.86-8.57-.5-16.28.63-25.34-.73l-.18-126.02h33.69s.44,120.89.44,120.89Z"/>
  <path class="cls-2" d="M2754.67,885.81c-8.33-.11-14.58-1.53-18.96-8.88-3.31-5.56-4.07-14.85,1.66-20.52,4.53-4.48,11.9-6.12,17.89-5.85,10.85.49,19.13,7.97,18.73,17.8-.43,10.57-8.55,17.6-19.32,17.45Z"/>
  <path class="cls-2" d="M939.13,882.58c-6.78,4.72-18.23,4.04-24.78-.58-6.93-4.88-8.66-13.23-6.68-19.61,2.64-8.52,10.63-11.15,19.37-11.23s15.83,2.57,19.12,10.01c3.24,7.34,1.42,15.53-7.02,21.41Z"/>
  <path class="cls-2" d="M1826.45,852.11c10.09,3.44,13.52,12.09,11.45,20.32-2.32,9.22-10.48,13.58-20.35,13.22-9.69-.36-18.15-5.19-19.37-14.32s3.58-18.18,13.49-19.61c4.37-.63,10.44-1.1,14.78.38Z"/>
  <path class="cls-2" d="M781.6,977.6c-1.47-18.98-14.4-31.17-33.57-36.73,17.33-8.13,26.89-22.06,25.89-39.43-.89-15.56-11.41-29.47-27.29-34.59-4.33-.77-8.51-3.29-13.17-3.29l-83.38.05-.14,159.78c0,3.04,2.82,5.75,6,5.73l75.4-.61c12.54-.1,25.11-4.11,33.78-12.18,12.16-9.76,17.76-22.42,16.5-38.73ZM713.01,890.17c1.34,0,2.69-.03,4.05-.07h0c2.18-.07,4.29.12,6.28.55,3.33.71,6.34,2.07,8.86,3.97,1.01.76,1.93,1.6,2.76,2.53.42.46.81.94,1.18,1.44.74,1,1.37,2.07,1.9,3.22.26.57.5,1.16.7,1.76.41,1.21.71,2.48.87,3.81.17,1.35.21,2.72.13,4.07-.27,4.73-2.01,9.31-5.08,12.9-.44.51-.9,1.01-1.4,1.48-2.95,2.82-6.86,4.83-11.62,5.5-2.36.33-4.7.56-7.02.72-3.1.21-6.17.28-9.23.28-1.53,0-3.06-.03-4.59-.06-5.34-.12-10.68-.41-16.09-.56l-.04-40.99c9.81-1.12,18.94-.5,28.33-.55ZM746.04,979.18c-.04.96-.12,1.91-.25,2.86-.06.47-.14.95-.23,1.42-.26,1.41-.63,2.79-1.11,4.12-2.79,7.78-9.53,11.6-17.67,13.43-5.63,1.27-11.93,1.58-18.06,1.6-4.09,0-8.09-.11-11.77-.18-1.23-.02-2.42-.04-3.56-.04s-2.24.01-3.29.05c-.62.02-1.22-.06-1.78-.23-2.04-.61-3.55-2.38-3.95-4.5-.07-.39-.11-.78-.1-1.19l.45-41.5c2.07.05,4.41,0,6.92-.08,3.77-.13,7.95-.35,12.26-.47,5.03-.15,10.23-.16,15.19.23,1.42.11,2.81.26,4.17.45,5.46.75,10.42,2.15,14.25,4.64,2.39,1.55,4.34,3.53,5.68,6.03,1.63,3.04,2.58,6.71,2.81,10.51.06.95.07,1.91.03,2.86Z"/>
  <path class="cls-2" d="M1242.01,902.1c-9.48.63-18.47-.67-27.62.84l-1.21,17.33c-4.46-2.5-5.43-7.04-9.42-10.24-19.25-15.42-47.85-14.32-65.27,4.2-20.84,22.16-22.43,71.04-2.73,95.05,10.92,13.32,24.82,18.76,41.77,17.53,13.2-.96,24.47-5.51,33.61-18.26,1.74,9.59,1.79,17.85.5,26.68-2.12,14.52-29.15,20.67-46.2,10.59-2.75-1.63-4.32-6.27-7.56-6.91-10.39-.42-20.36-.9-31.15.4.65,11.13,7.07,18.34,14.69,24.84,18.95,16.17,67.13,16.82,90.01-1.96,9.45-7.76,15.7-20.16,15.73-32.96l.31-122.3c0-3.27-2.74-5.04-5.47-4.85ZM1209.58,984.72c-4.7,10.29-13.76,15.38-24.72,15.22-8.52-.13-16.85-2.76-21.5-10.26-7.1-11.44-8.41-25.25-5.62-38.14,2.82-13.01,11.56-21.82,24.2-23.26,12.15-1.39,23.68,5.02,28.5,17.47,4.75,12.28,4.57,27.12-.85,38.98Z"/>
  <path class="cls-2" d="M1095.2,899.83l-.84-45.01c-11.53-.71-21.88-.76-33.28.02l-.74,63.76c-3.67-.56-3.49-3.74-5.15-5.35-13.07-12.69-31.12-17.46-49.19-11.38-37.75,12.7-40.69,63.75-30.79,94.35,5.96,18.43,20.56,31.01,37.65,33.86,19.49,3.24,37.07-3.88,48.12-19.85,3.64,5.41-2.57,18.88,6.94,18.88h21.04c3.47,0,6.63-2.26,6.62-6.24l-.39-123.03ZM1037.1,1002.45c-10.91.88-21.39-2.69-26.53-12.89-7.51-14.91-8.26-34.21.24-48.53,5.42-9.14,16.42-13.91,25.76-12.85,10.44,1.19,19.02,8.46,22.51,18.9,7.34,21.97,1.31,53.5-21.98,55.38Z"/>
  <path class="cls-2" d="M2200.81,901.31c-20.11-5.6-41.18,1.17-52.7,19.21-2.45-6.92.64-12.21-2.2-18.07-10.94-.15-21.37-.76-32.52.43l-.18,162.38c0,4.21,3.47,6.09,7.09,5.91,8.85-.44,17.16.79,26.49-1.05l1.01-54.8c.05-2.79,4.63-.68,5.55.59,8.06,11.12,21.05,15.12,34.59,15.07,21.01-.08,38.01-12.84,45.22-32.72,11.49-31.69,7.61-85.83-32.35-96.95ZM2193.98,995.09c-7.7,8.19-21.92,10.11-31.89,3.95-20.47-12.64-18.84-51.04-4.45-64.28,7.91-7.27,19.63-8.47,29.09-4.12,22.15,10.18,21.24,49.58,7.25,64.45Z"/>
  <path class="cls-2" d="M2472.05,938.23c-.05-9.42-4.93-19.32-11.22-25.48-11.92-11.69-27.58-13.76-43.5-13.68-16.6.08-32.63,3.73-43.91,16.13-5.54,6.09-10.49,13.41-9.38,22.1l30.81.69c5.85-13.6,34.38-14.71,40.76-3.1,2.69,4.89,1.63,10.9,1,16.87-18.85,1.27-42.73.38-58.59,8.49-13.55,6.93-20.58,19.55-19.19,35.58,1.91,22.01,19.57,35.22,40.54,35.19,14.2-.02,27.59-3.59,37.22-16.67,3.87,5.33.65,9.5,2.65,14.34,8.62-.65,33.35,4.57,33.29-5.26l-.48-85.2ZM2423.32,1003.16c-8.59,3.44-17.73,3.31-25.02-1.37-4.76-3.06-7.16-7.99-6.38-13.33,2.59-17.55,32.07-13.85,45.73-14.3,3.35,12.49-2.03,24.08-14.33,29Z"/>
  <path class="cls-2" d="M2075.12,921.68c-23.06-31.76-81.58-30.41-102.26,3.44-16.65,27.25-14.46,79.64,18.7,98.24,19.85,11.14,46.31,11.55,66.74.23,36.13-20.02,35.95-75.57,16.82-101.91ZM2049.61,986.25c-3.89,11.74-13.71,17.7-24.3,17.76-10.87.06-20.21-6.09-24.36-17.06-5.21-13.77-4.87-29.59.17-43.32,4.1-11.2,13.39-16.95,24.94-16.48,28.85,1.16,30.49,38.16,23.55,59.1Z"/>
  <path class="cls-1" d="M559.11,971.93c2.54-18.58-.23-37.25-11.13-52.19-21.76-29.82-77.66-27.56-96.37,4.27-13.35,22.7-13.83,51.95-3.09,75.6,12.26,27.01,42.81,33.18,69.53,28.47,19.02-3.35,35.28-15.7,40.66-35.13-10.27-2.52-19.91-.62-30.56-1.12-6.63,11.39-16.89,12.73-28.68,12.3-15.41-.56-26.93-15.47-24.8-31.5l84.44-.69ZM496.53,924.22c16-2.31,30.76,7.47,30.9,26.3-17.52,1.7-34.71.63-52.8.48-.96-13.61,9.57-24.3,21.89-26.78Z"/>
  <path class="cls-1" d="M1391.9,973.58c2.54-18.58-.23-37.25-11.13-52.19-21.76-29.82-77.66-27.56-96.37,4.27-13.35,22.7-13.83,51.95-3.09,75.6,12.26,27.01,42.81,33.18,69.53,28.47,19.02-3.35,35.28-15.7,40.66-35.13-10.27-2.52-19.91-.62-30.56-1.12-6.63,11.39-16.89,12.73-28.68,12.3-15.41-.56-26.93-15.47-24.8-31.5l84.44-.69ZM1329.31,925.88c16-2.31,30.76,7.47,30.9,26.3-17.52,1.7-34.71.63-52.8.48-.96-13.61,9.57-24.3,21.89-26.78Z"/>
  <g>
    <path class="cls-2" d="M2122.73,355.02c-6.7.24-11.15,5.08-11.19,12.59l-.77,155.64c-27.08-48.12-54.19-91.18-90.2-129.42-14.37-16.5-28.49-31.1-45.78-44.33-23.94-21.27-49.34-38.58-76.83-55.18-66.42-40.11-162.9-69.94-239.89-73.31l-30.1-1.32c-69.13-3.03-152.51,5.59-217.38,29.54-27.18,10.04-52.48,19.88-77.56,33.87-43.32,24.16-81.95,53.11-117.39,87.84-37.1,36.34-86.81,102.93-111.19,148.17l-26.93,49.97-96.25.68c-6.35.04-11.16,7.33-10.68,12.33.43,4.57,4.33,11.44,11.06,11.44l1130.05.04,1.47,64.08c.13,5.51,8.21,8.7,12.27,7.91,4.16-.8,10.25-3.2,10.25-10.17l-.11-287.95c0-8.18-6.08-12.67-12.83-12.42ZM1185.21,569.31l-75.07.07c-2.11,0-3.45-2.22-2.72-3.77,6.98-14.9,15.33-28.23,23.35-42.53,5.05-9.01,9.6-18.1,16.59-26.3,7.8,9.09,11.93,19.65,17.71,29.75l22.26,38.91c.5.88.25,3.87-2.11,3.88ZM1189.05,517.65l-25.8-45.28,23.41-31.4c16.07-19.45,30.65-39.15,52.48-56.79l-33.4,159.66c-9.04-7.61-11.71-17.47-16.68-26.19ZM1315.32,569.59l-89.67-.82,36.33-165.34,59.64,160.58c.38,4.97-2.84,5.62-6.29,5.58ZM1304.36,445.5l-32.68-91.48c27.25-21.73,54.85-41.11,89.24-56.91l-28.02,220.1-28.54-71.71ZM1451.98,569.3l-94.36.12c-4.1,0-5.65-3.73-5.16-7.36l7.71-57.05,21.4-166.49c8.88,14.49,11.14,28.22,15.85,42.83l58.8,182.2c.87,2.69-.77,5.76-4.25,5.76ZM1446.54,453.17l-54.34-170.49c41.18-16.93,83.78-27.6,129.33-33.02l-50.78,272.16-24.21-68.65ZM1585.85,569.19l-92.14.34c-1.75,0-5.93-1.71-5.29-5.06l46.57-243.32,50.48,233.06c.87,5.39,2.57,9.56.38,14.97ZM1716.62,566.93c-.43.67-1.49,2.38-3.76,2.39l-86.91.08c-1.72,0-3.15-.93-3.81-1.52-1.33-1.22-1.09-3.13-.38-5.46l62.94-207.27c5.63,10.82,5.3,20.94,6.84,31.89l24.83,175.82c.24,1.71.76,3.28.24,4.09ZM1720.03,412.3l-15.48-115.03c36.01,15.3,66.48,36.57,97.2,59.78l-32.56,86.74-32.35,79.97-16.8-111.47ZM1844.03,568.08c-.42.83-2.2,1.35-3.99,1.35l-86.9.03c-1.8,0-3.18-.63-3.82-1.42-1.11-1.37-.15-3.11-.17-5.26,8.53-17.36,13.91-34.87,21.03-52.84l40.37-101.84,34.5,155.27c.42,1.89-.57,3.84-1.01,4.72ZM1865.62,540.67l-33.41-154.49c11.58,5.79,18,15.58,26.31,24.14,16.47,16.97,29.47,35.82,44.95,55.73l-24.76,50.45c-3.96,8.06-6.18,17.05-13.1,24.16ZM1958.32,569.32l-70.29.14c-1.75,0-3.46-.57-3.96-1.42-.75-1.26-.95-3.7-.02-5.61l32.38-66.43c.6-1.22,1.98-2.4,2.81-2.81.71-.34,2.32.62,3.01,1.75l9.06,14.73,25.08,49.79c1.4,2.77,2.43,5.47,1.93,9.86ZM1986.8,569.23s0,0,0,0c-13.9-41.83-44.2-114.34-110.14-183.04-40.46-42.15-83.49-71.57-122.24-92.1,0-.03,0-.06,0-.1-.07,0-.13,0-.2,0-1.77-.94-3.54-1.86-5.29-2.76-.02-.14-.05-.24-.09-.24-.1,0-.24-.01-.41-.02-40.33-20.67-75.52-31.7-97.58-37.6-3.26-.14-6.64-.11-9.9-.11l-51.56-.04c-1.37,0-2.75.07-4.12.14h0,0,0c1.18.96,1.35,2.64,4.15,3.27,5.99,1.35,11.93,2.79,17.85,4.29,22.6,7.77,45.2,15.53,67.8,23.3.02.14.03.27.03.4l1.35.2c.16.02.34.04.53.05.87.3,1.74.6,2.61.9h0c.18.99.35,2.18-.08,3.58l-41.67,138.13-28.06,91.92c-.92,3.03-1.82,8.31-6.05,6.56l-7.78-37.1c0-.17-.02-.33-.02-.5l-.05-2.48c-.41-1.01-.81-2.03-1.2-3.06l-6.28-29.98-.03-1.4c-.12-.18-.25-.36-.38-.53l-19.65-93.73-2.44-12.62-.26-.24-19.84-94.65-.07.06c.03-9.07,12.79-8.78,17.89-8.16.42.05.93.03,1.48-.04,5.76-.14,12.34-.23,19.64-.2.16.15.32.24.47.24h14.64c5.97.16,12.29.4,18.91.76,77.6,4.2,134.9,20.59,146.55,24,70.45,20.65,127.65,52.39,170.64,82.33,14.42,10.31,28.19,21.76,40.69,34.62l28.28,29.07c27.27,28.04,91.4,119.7,96.21,156.9h-114.37Z"/>
    <path class="cls-2" d="M1110.18,369.14c80.45-70.11,168.41-108.48,274.69-120.77,30.64-11.91,60.83-18.49,94.03-26.49-18.15-2.86-34.61-1.86-52.12-.85-52.69,3.06-105.04,10.14-154.73,27.74-34.99,12.4-67.44,26.24-98.88,45.42-41.45,25.28-79.15,54.61-112.31,89.84-16.01,18.06-31.36,34.34-45.19,53.95-21.15,27.23-38.09,55.59-57.88,86.66l-1.07-161.03c-.05-6.88-7.58-10.45-12.34-10.11-5.44.39-11.4,4.21-11.41,11.34l-.31,204.3-96.61.52c-7.45.04-11.58,6.21-11.35,12.57.19,5.2,4.52,11.01,11.28,11.05l96.6.68.52,60.61c.06,7.25,6.3,11.54,12.62,11.25,5.02-.23,11.1-4.71,11.13-11.28l.37-75.72c29.74-60.28,64.41-114.22,108.41-164.16,14.39-16.33,28.23-31.3,44.54-45.52Z"/>
    <path class="cls-2" d="M2243.49,580.75c-.26-4.44-4.63-12.03-11-12.05l-67.04-.23c-7.16-.03-12.18,7.96-11.81,13.71.41,6.32,5.99,12.49,13.36,12.44l64.68-.42c7.73-.05,12.15-7.64,11.81-13.45Z"/>
  </g>
  <rect class="cls-3" x="1086.71" y="694.95" width="690.97" height="27" rx="13.5" ry="13.5"/>
  <rect class="cls-3" x="1015.4" y="631.31" width="294" height="27.81" rx="13.91" ry="13.91"/>
  <rect class="cls-3" x="1344.45" y="631.68" width="121.37" height="27.07" rx="13.54" ry="13.54"/>
  <rect class="cls-3" x="1502.81" y="631.33" width="546.54" height="27.72" rx="13.86" ry="13.86"/>
  <rect class="cls-3" x="1818.25" y="694.16" width="171.51" height="27.77" rx="13.89" ry="13.89"/>
</svg>